<svg id="affiliate-marketing" xmlns="http://www.w3.org/2000/svg" width="79.092" height="79.091" viewBox="0 0 79.092 79.091">
  <path id="Path_3219" data-name="Path 3219" d="M224.9,7.106a6.953,6.953,0,1,0-13.9,0,6.951,6.951,0,0,0,13.9,0Z" transform="translate(-178.406)" fill="#00d983"/>
  <path id="Path_3220" data-name="Path 3220" d="M204.171,102.586a11.586,11.586,0,1,0-23.171,0V104.9h23.171Z" transform="translate(-153.04 -76.943)" fill="#00d983"/>
  <circle id="Ellipse_33" data-name="Ellipse 33" cx="6.951" cy="6.951" r="6.951" transform="translate(60.4 27.96)" fill="#00d983"/>
  <path id="Path_3221" data-name="Path 3221" d="M372.586,271A11.6,11.6,0,0,0,361,282.586V284.9h23.326v-2.317A11.732,11.732,0,0,0,372.586,271Z" transform="translate(-305.234 -229.137)" fill="#00d983"/>
  <circle id="Ellipse_34" data-name="Ellipse 34" cx="6.951" cy="6.951" r="6.951" transform="translate(4.789 27.96)" fill="#00d983"/>
  <path id="Path_3222" data-name="Path 3222" d="M23.326,282.586A11.6,11.6,0,0,0,11.74,271,11.732,11.732,0,0,0,0,282.586V284.9H23.326Z" transform="translate(0 -229.137)" fill="#00d983"/>
  <circle id="Ellipse_35" data-name="Ellipse 35" cx="6.951" cy="6.951" r="6.951" transform="translate(32.594 51.131)" fill="#00d983"/>
  <path id="Path_3223" data-name="Path 3223" d="M204.171,432.586a11.586,11.586,0,0,0-23.171,0v2.472h23.171Z" transform="translate(-153.04 -355.966)" fill="#00d983"/>
  <path id="Path_3224" data-name="Path 3224" d="M65.634,72.586a6.959,6.959,0,0,1,6.951-6.951H74.9V61H72.586A11.6,11.6,0,0,0,61,72.586V74.9h4.634Z" transform="translate(-51.577 -51.577)" fill="#00d983"/>
  <path id="Path_3225" data-name="Path 3225" d="M370.268,72.586V74.9H374.9V72.586A11.6,11.6,0,0,0,363.317,61H361v4.634h2.317A6.959,6.959,0,0,1,370.268,72.586Z" transform="translate(-305.234 -51.577)" fill="#00d983"/>
  <path id="Path_3226" data-name="Path 3226" d="M61,391v2.317A11.6,11.6,0,0,0,72.586,404.9H74.9v-4.634H72.586a6.959,6.959,0,0,1-6.951-6.951V391Z" transform="translate(-51.577 -330.6)" fill="#00d983"/>
  <path id="Path_3227" data-name="Path 3227" d="M374.9,393.317V391h-4.634v2.317a6.959,6.959,0,0,1-6.951,6.951H361V404.9h2.317A11.6,11.6,0,0,0,374.9,393.317Z" transform="translate(-305.234 -330.6)" fill="#00d983"/>
</svg>
