<svg xmlns="http://www.w3.org/2000/svg" width="80.334" height="88.808" viewBox="0 0 80.334 88.808">
  <g id="web-design" transform="translate(-24.43 0)">
    <path id="Path_3213" data-name="Path 3213" d="M97.757,11.549H96.7a7.592,7.592,0,0,0-12.79-8.177l-5.472,8.177h-47a7.015,7.015,0,0,0-7.007,7.007v44.8a7.015,7.015,0,0,0,7.007,7.007H58.654L56.6,79H52.159a5.252,5.252,0,0,0-5.246,5.246v1.1H41.441a1.735,1.735,0,0,0,0,3.469H87.753a1.735,1.735,0,1,0,0-3.469H82.281v-1.1A5.252,5.252,0,0,0,77.035,79H72.6L70.54,70.361H97.757a7.015,7.015,0,0,0,7.007-7.007v-44.8a7.015,7.015,0,0,0-7.007-7.007ZM72.9,42.042c-2.712,1.9-7.792-.682-12.644,1.907-1.184-6.15-.437-11.933,5.724-13.21a11.041,11.041,0,0,1,2.384-.227l6.275,4.656C75.553,37.816,75.212,40.427,72.9,42.042ZM74.653,23.45l4.91,3.643-3.776,4.6-4.445-3.3ZM86.8,5.3a4.123,4.123,0,1,1,6.614,4.907l-11.646,14.2-5.181-3.844ZM78.812,84.244v1.1H50.382v-1.1a1.779,1.779,0,0,1,1.777-1.777H77.035a1.779,1.779,0,0,1,1.777,1.777ZM69.03,79H60.163l2.056-8.637h4.754Zm32.264-15.644a3.542,3.542,0,0,1-3.538,3.538H31.437A3.542,3.542,0,0,1,27.9,63.354V55.232h4.957a1.735,1.735,0,1,0,0-3.469H27.9V18.556a3.542,3.542,0,0,1,3.538-3.538H76.12L68.075,27.041a11.851,11.851,0,0,0-9.014,3.808c-3.023,3.529-3.554,9.074-1.579,16.48a1.736,1.736,0,0,0,2.874.807c4.485-4.285,10.071.389,15.073-3.66,3.053-2.472,3.776-6.4,2.625-10.075l15.9-19.383h3.8a3.542,3.542,0,0,1,3.538,3.538V51.762H46.731a1.735,1.735,0,0,0,0,3.469h54.564Z" fill="#00d983"/>
    <path id="Path_3214" data-name="Path 3214" d="M104.43,298.457a1.734,1.734,0,1,0,2.04,1.362A1.733,1.733,0,0,0,104.43,298.457Z" transform="translate(-64.971 -246.661)" fill="#00d983"/>
  </g>
</svg>
