<svg id="magic-wand" xmlns="http://www.w3.org/2000/svg" width="83.109" height="83.107" viewBox="0 0 83.109 83.107">
  <path id="Path_3215" data-name="Path 3215" d="M376.741,20.777A10.388,10.388,0,0,1,387.13,10.388,10.389,10.389,0,0,1,376.741,0a10.389,10.389,0,0,1-10.388,10.388A10.388,10.388,0,0,1,376.741,20.777Z" transform="translate(-304.022)" fill="#00d983"/>
  <path id="Path_3216" data-name="Path 3216" d="M404.674,183.176a7.791,7.791,0,0,1-7.791,7.791,7.791,7.791,0,0,1,7.791,7.791,7.791,7.791,0,0,1,7.791-7.791A7.791,7.791,0,0,1,404.674,183.176Z" transform="translate(-329.358 -152.011)" fill="#00d983"/>
  <path id="Path_3217" data-name="Path 3217" d="M137.7,31.165a15.583,15.583,0,0,1,15.583-15.583A15.583,15.583,0,0,1,137.7,0a15.583,15.583,0,0,1-15.583,15.583A15.583,15.583,0,0,1,137.7,31.165Z" transform="translate(-101.341)" fill="#00d983"/>
  <path id="Path_3218" data-name="Path 3218" d="M57.137,91.588,0,148.725l10.388,10.388,57.137-57.137ZM48.27,108.246l7.345-7.345,2.6,2.6-7.345,7.345-2.6-2.6Z" transform="translate(0 -76.005)" fill="#00d983"/>
</svg>
