<svg xmlns="http://www.w3.org/2000/svg" width="94.229" height="82.403" viewBox="0 0 94.229 82.403">
    <defs>
        <style>
            .cls-1{fill:#00d983}
        </style>
    </defs>
    <g id="trainig" transform="translate(97.249 -34.747)">
        <path id="Path_642" d="M85.56 32H44.151a8.671 8.671 0 0 0-8.668 8.668v26.557l-7.693-3.81c-.258-.129-.515-.258-.791-.368a13.1 13.1 0 1 0-18.073.81A17.42 17.42 0 0 0 0 79.114v8.871a8.7 8.7 0 0 0 5.908 8.227v15.423a2.757 2.757 0 0 0 2.761 2.761H26.41a2.757 2.757 0 0 0 2.761-2.761V80.623L38 85.04a7.578 7.578 0 0 0 10.049-3.165h9.9L47.482 110.7a2.76 2.76 0 1 0 5.19 1.877l11.153-30.7h1.932l11.282 30.716a2.766 2.766 0 1 0 5.19-1.914l-10.582-28.8H85.56a8.671 8.671 0 0 0 8.668-8.668V40.668A8.671 8.671 0 0 0 85.56 32zM9.957 53.974a7.582 7.582 0 1 1 7.582 7.582 7.6 7.6 0 0 1-7.582-7.582zM43.341 78.93c0 .018-.018.037-.018.055a1.952 1.952 0 0 1-1.141 1.178 2.085 2.085 0 0 1-1.693-.055c-5.245-2.632-12.828-6.423-12.828-6.423a2.759 2.759 0 0 0-3.994 2.466v32.722H11.429v-14.98a2.757 2.757 0 0 0-2.761-2.761 3.158 3.158 0 0 1-3.147-3.147v-8.871A12.009 12.009 0 0 1 17.539 67.1h2.448a12.237 12.237 0 0 1 5.356 1.251s13.693 6.809 17.189 8.539a1.681 1.681 0 0 1 .809 2.04zm45.366-5.724a3.132 3.132 0 0 1-.92 2.227 3.164 3.164 0 0 1-2.227.92h-36.9c0-.018 0-.037-.018-.037l6.846-13.693a2.757 2.757 0 0 0-4.932-2.466l-5.834 11.669c-1.086-.534-2.356-1.178-3.718-1.84V40.668a3.158 3.158 0 0 1 3.147-3.147h41.391a3.164 3.164 0 0 1 2.227.92 3.132 3.132 0 0 1 .92 2.227v32.539z" class="cls-1" transform="translate(-97.249 2.747)"/>
        <path id="Path_643" d="M289.417 96.3h-29.556a2.761 2.761 0 0 0 0 5.521h29.575a2.761 2.761 0 1 0-.018-5.521z" class="cls-1" transform="translate(-304.62 -52.015)"/>
        <path id="Path_644" d="M354.939 152.5h-14.778a2.761 2.761 0 0 0 0 5.521h14.778a2.761 2.761 0 0 0 0-5.521z" class="cls-1" transform="translate(-370.142 -97.872)"/>
        <path id="Path_645" d="M354.939 208.7h-14.778a2.761 2.761 0 0 0 0 5.521h14.778a2.761 2.761 0 0 0 0-5.521z" class="cls-1" transform="translate(-370.142 -143.729)"/>
    </g>
</svg>
