<?xml version="1.0" encoding="utf-8"?>
<!-- Generator: Adobe Illustrator 23.0.1, SVG Export Plug-In . SVG Version: 6.00 Build 0)  -->
<svg version="1.1" id="Layer_1" xmlns="http://www.w3.org/2000/svg" xmlns:xlink="http://www.w3.org/1999/xlink" x="0px" y="0px"
	 viewBox="0 0 418 1464" style="enable-background:new 0 0 418 1464;" xml:space="preserve">
<style type="text/css">
	.st0{fill-rule:evenodd;clip-rule:evenodd;fill:#27265C;}
	.st1{fill-rule:evenodd;clip-rule:evenodd;fill:#F9CBFB;}
	.st2{fill-rule:evenodd;clip-rule:evenodd;fill:#00EA9C;}
	.st3{fill-rule:evenodd;clip-rule:evenodd;fill:#9F6DBF;}
	.st4{fill-rule:evenodd;clip-rule:evenodd;fill:#E81313;}
	.st5{fill-rule:evenodd;clip-rule:evenodd;fill:#FFFFFF;}
	.st6{fill-rule:evenodd;clip-rule:evenodd;fill:#29265C;}
</style>
<g>
	<g>
		<g transform="translate(-1022 -2025) translate(1022 2025.891)">
			<path class="st0" d="M3,0l413,417.4V0H3z"/>
			<g transform="translate(211 18)">
				<g>
					<path id="d7cfbync5a" class="st1" d="M0,0.7v409.7l206,206.2V205.5L0.7,0L0,0.7z"/>
				</g>
				<g transform="rotate(90 -1.5 822.978)">
					<path id="mjf05p8bdb" class="st2" d="M205.2,616.5H-1.5h-206.7l413.4,413V616.5z"/>
				</g>
			</g>
			<path class="st3" d="M3,428.4h206v206.2H3V428.4z"/>
			<path class="st4" d="M209.1,841.8H0.9v208L209.1,841.8z"/>
			<g>
				<path id="mnfv0wjcgc" class="st5" d="M1,1049.3V1256v206.7l413-413.4H1z"/>
			</g>
			<path class="st6" d="M416,1049.7H111l152,152.2l0.5,0.5L416,1355V1049.7z"/>
		</g>
	</g>
</g>
</svg>
