<svg xmlns="http://www.w3.org/2000/svg" width="86" height="96.644" viewBox="0 0 86 96.644">
  <path id="api" d="M114.193,42.93A18.633,18.633,0,0,0,98.223,24.511a27.159,27.159,0,0,0-54.059,0,18.6,18.6,0,0,0-6.335,34.714,36.939,36.939,0,0,0,.54,11.246,2.831,2.831,0,0,0,2.774,2.266h5.12q.222.572.471,1.134l-3.621,3.621a2.831,2.831,0,0,0-.359,3.565A37.153,37.153,0,0,0,53.213,91.516a2.831,2.831,0,0,0,3.564-.36L60.4,87.535q.561.248,1.134.471v5.12A2.831,2.831,0,0,0,63.8,95.9a37.152,37.152,0,0,0,14.791,0,2.831,2.831,0,0,0,2.266-2.774v-5.12q.572-.222,1.134-.471l3.621,3.621a2.832,2.832,0,0,0,3.564.36A37.145,37.145,0,0,0,99.633,81.056a2.831,2.831,0,0,0-.359-3.564l-3.621-3.621q.248-.561.471-1.134h5.119a2.831,2.831,0,0,0,2.774-2.266,36.929,36.929,0,0,0,.54-11.246,18.619,18.619,0,0,0,9.636-16.3ZM99.1,63.076a31.546,31.546,0,0,1-.255,4H94.1A2.831,2.831,0,0,0,91.391,69.1a20.981,20.981,0,0,1-1.66,4,2.832,2.832,0,0,0,.486,3.353L93.572,79.8a31.52,31.52,0,0,1-5.655,5.655L84.562,82.1a2.832,2.832,0,0,0-3.353-.486,20.966,20.966,0,0,1-4,1.659,2.831,2.831,0,0,0-2.021,2.713v4.74a31.627,31.627,0,0,1-8,0v-4.74a2.831,2.831,0,0,0-2.021-2.713,20.98,20.98,0,0,1-4-1.659,2.831,2.831,0,0,0-3.353.486l-3.356,3.355A31.52,31.52,0,0,1,48.814,79.8l3.355-3.355a2.831,2.831,0,0,0,.486-3.353A20.974,20.974,0,0,1,51,69.1a2.831,2.831,0,0,0-2.713-2.021h-4.74a31.543,31.543,0,0,1-.255-4q0-.929.057-1.864a18.63,18.63,0,0,0,3.452.322H58.209a13.077,13.077,0,1,0,25.97,0H95.589a18.629,18.629,0,0,0,3.452-.322q.056.933.057,1.864ZM78.445,61.534a7.414,7.414,0,1,1-14.5,0Zm17.144-5.663H74.024V40.811l3.747,3.747a2.831,2.831,0,1,0,4-4l-8.58-8.58a2.832,2.832,0,0,0-4,0l-8.58,8.58a2.831,2.831,0,1,0,4,4l3.746-3.746v15.06H46.8a12.942,12.942,0,0,1-.031-25.883c.046,0,.1,0,.144,0A2.833,2.833,0,0,0,49.7,27.157a21.494,21.494,0,1,1,42.989,0,2.831,2.831,0,0,0,2.831,2.831h.023l.083,0a12.942,12.942,0,0,1-.036,25.884Z" transform="translate(-28.193)" fill="#00d983"/>
</svg>
