<svg xmlns="http://www.w3.org/2000/svg" width="88.878" height="88.531" viewBox="0 0 88.878 88.531">
    <defs>
        <style>
            .cls-1{fill:#00d983}
        </style>
    </defs>
    <g id="web-development" transform="translate(0 -1)">
        <path id="Path_637" d="M81.067 1H7.812A7.823 7.823 0 0 0 0 8.812v72.907a7.823 7.823 0 0 0 7.812 7.812h73.255a7.823 7.823 0 0 0 7.812-7.812V8.812A7.823 7.823 0 0 0 81.067 1zM7.812 6.208h73.255a2.6 2.6 0 0 1 2.6 2.6v13.023H5.208V8.812a2.6 2.6 0 0 1 2.604-2.604zm73.255 78.115H7.812a2.6 2.6 0 0 1-2.6-2.6V27.039h78.459v54.68a2.6 2.6 0 0 1-2.604 2.604z" class="cls-1"/>
        <path id="Path_638" d="M215.229 196.186a2.606 2.606 0 0 0-3.42 1.371l-15.623 36.454a2.605 2.605 0 1 0 4.791 2.048l15.623-36.453a2.606 2.606 0 0 0-1.371-3.42z" class="cls-1" transform="translate(-161.954 -161.128)"/>
        <path id="Path_639" d="M93.633 241.952a2.6 2.6 0 0 0-3.663-.4l-13.019 10.416a2.6 2.6 0 0 0 0 4.062l13.019 10.415a2.605 2.605 0 1 0 3.264-4.062L82.749 254l10.485-8.384a2.613 2.613 0 0 0 .4-3.663z" class="cls-1" transform="translate(-62.786 -198.318)"/>
        <path id="Path_640" d="M348.235 251.994l-13.019-10.415a2.605 2.605 0 1 0-3.263 4.062l10.485 8.384-10.485 8.384a2.605 2.605 0 1 0 3.263 4.062l13.019-10.415a2.6 2.6 0 0 0 0-4.062z" class="cls-1" transform="translate(-273.521 -198.344)"/>
        <circle id="Ellipse_14" cx="2.604" cy="2.604" r="2.604" class="cls-1" transform="translate(10.589 11.415)"/>
        <circle id="Ellipse_15" cx="2.604" cy="2.604" r="2.604" class="cls-1" transform="translate(21.004 11.415)"/>
        <circle id="Ellipse_16" cx="2.604" cy="2.604" r="2.604" class="cls-1" transform="translate(31.42 11.415)"/>
        <path id="Path_641" d="M333.6 66.208h15.623a2.6 2.6 0 0 0 0-5.208H333.6a2.6 2.6 0 0 0 0 5.208z" class="cls-1" transform="translate(-273.542 -49.585)"/>
    </g>
</svg>
