<svg xmlns="http://www.w3.org/2000/svg" width="93.333" height="93.333" viewBox="0 0 93.333 93.333">
    <path fill="#00d983" d="M46.667 0a46.667 46.667 0 1 0 46.666 46.667A46.722 46.722 0 0 0 46.667 0zM4.7 46.667A41.675 41.675 0 0 1 8.331 29.6l20.015 54.838A41.987 41.987 0 0 1 4.7 46.667zM46.667 88.63a41.658 41.658 0 0 1-11.849-1.714L47.4 50.331l12.9 35.346a4.351 4.351 0 0 0 .292.583 42.386 42.386 0 0 1-13.927 2.37zm5.779-61.615c2.516-.128 4.794-.4 4.794-.4a1.738 1.738 0 0 0-.273-3.464s-6.8.529-11.174.529c-4.12 0-11.047-.529-11.047-.529-2.26-.128-2.516 3.336-.255 3.464 0 0 2.151.273 4.393.4l6.526 17.919-9.189 27.527L20.964 27c2.516-.128 4.794-.4 4.794-.4a1.738 1.738 0 0 0-.273-3.464s-6.8.529-11.174.529c-.784 0-1.714-.018-2.716-.055a41.991 41.991 0 0 1 63.419-7.893c-.182-.018-.365-.036-.547-.036a7.261 7.261 0 0 0-7.036 7.456c0 3.464 1.987 6.38 4.12 9.844a22 22 0 0 1 3.464 11.576c0 3.591-1.367 7.747-3.208 13.563L67.63 72.1zm31.044-.474a41.961 41.961 0 0 1-15.732 56.4l12.815-37.076a39.714 39.714 0 0 0 3.208-15.039 28.77 28.77 0 0 0-.292-4.284z"/>
</svg>
